<?xml version="1.0" encoding="utf-8"?>
<!-- Generator: Adobe Illustrator 16.0.0, SVG Export Plug-In . SVG Version: 6.00 Build 0)  -->
<!DOCTYPE svg PUBLIC "-//W3C//DTD SVG 1.1//EN" "http://www.w3.org/Graphics/SVG/1.1/DTD/svg11.dtd">
<svg version="1.1" id="Layer_1" xmlns="http://www.w3.org/2000/svg" xmlns:xlink="http://www.w3.org/1999/xlink" x="0px" y="0px"
	 width="894.25px" height="319px" viewBox="0 0 894.25 319" enable-background="new 0 0 894.25 319" xml:space="preserve">
<g>
	<path d="M83.829,179.905H47.806V37.59H7.78V6.459h116.297V37.59H83.829V179.905z"/>
	<path d="M262.835,6.459v173.446h-36.023v-72.936h-50.478v72.936h-36.023V6.459h36.023v69.378h50.478V6.459H262.835z"/>
	<path d="M283.96,97.629v-8.895c0-60.039,21.125-85.166,66.043-85.166c45.14,0,66.265,25.127,66.265,85.166v8.895
		c0,60.039-21.125,85.166-66.265,85.166C305.085,182.795,283.96,157.668,283.96,97.629z M351.114,151.665
		c22.237,0,28.463-19.346,28.463-54.035v-8.895c0-34.689-6.226-54.035-28.463-54.035h-2.001c-22.236,0-28.686,19.346-28.686,54.035
		v8.895c0,34.689,6.449,54.035,28.686,54.035H351.114z"/>
	<path d="M539.904,179.905h-36.691L472.305,68.944l1.111,34.689v76.271h-36.023V6.459h53.146L521.67,117.42L552.579,6.459h53.367
		v173.446h-36.023v-76.271l0.89-34.689L539.904,179.905z"/>
	<path d="M714.239,6.014l43.361,173.891h-38.47l-8.449-37.357h-42.473l-8.228,37.357H621.29L664.651,6.014H714.239z
		 M675.103,111.416h28.463l-14.231-63.819L675.103,111.416z"/>
	<path d="M766.941,57.604v-2.446c0-31.354,21.569-51.589,61.15-51.589c42.694,0,61.374,18.901,61.374,59.594v4.669h-36.023
		c0-22.681-6.894-33.132-25.128-33.132h-2.001c-14.454,0-22.904,8.005-22.904,19.124v1.112c0,12.675,5.115,19.346,30.465,22.681
		c37.802,5.114,56.926,18.012,56.926,50.254v2.225c0,33.354-22.015,52.7-62.708,52.7c-40.915,0-62.484-18.234-62.484-60.039v-2.001
		h36.023c0,21.792,8.895,30.909,25.572,30.909h2.001c16.678,0,24.905-8.895,24.905-20.458v-1.111
		c0-12.453-6.449-19.346-31.576-22.682C784.73,102.299,766.941,88.957,766.941,57.604z"/>
</g>
<g>
	<path d="M74.275,315.492H52.263l-18.543-66.57l0.667,20.812v45.758H12.774V211.435h31.885l18.677,66.57l18.544-66.57h32.018
		v104.057H92.286v-45.758l0.534-20.812L74.275,315.492z"/>
	<path d="M150.05,315.492h-22.146v-22.279h22.146V315.492z"/>
	<path d="M239.433,315.492H217.42l-18.543-66.57l0.667,20.812v45.758h-21.612V211.435h31.885l18.677,66.57l18.544-66.57h32.018
		v104.057h-21.612v-45.758l0.534-20.812L239.433,315.492z"/>
	<path d="M344.023,211.167l26.015,104.325h-23.079l-5.07-22.412h-25.48l-4.936,22.412h-23.213l26.015-104.325H344.023z
		 M320.544,274.403h17.076l-8.538-38.288L320.544,274.403z"/>
	<path d="M413.528,315.492h-21.612v-85.38h-24.014v-18.677h69.772v18.677h-24.146V315.492z"/>
	<path d="M491.705,315.492h-21.612v-85.38h-24.014v-18.677h69.772v18.677h-24.146V315.492z"/>
	<path d="M599.098,211.435v104.057h-21.612v-43.757h-30.283v43.757H525.59V211.435h21.612v41.623h30.283v-41.623H599.098z"/>
	<path d="M677.675,211.435v18.677h-42.023v22.946h35.353v18.677h-35.353v25.081h42.023v18.676h-63.636V211.435H677.675z"/>
	<path d="M745.445,236.115L730.37,315.76h-27.615l-17.209-104.325h22.546l10.005,74.842l14.008-74.842h26.815l14.008,74.842
		l10.005-74.842h22.546L788.27,315.76h-27.749L745.445,236.115z"/>
	<path d="M813.351,242.119v-1.468c0-18.811,12.94-30.95,36.688-30.95c25.614,0,36.82,11.34,36.82,35.753v2.802h-21.612
		c0-13.607-4.135-19.878-15.074-19.878h-1.201c-8.672,0-13.741,4.803-13.741,11.473v0.668c0,7.604,3.068,11.606,18.277,13.607
		c22.679,3.068,34.152,10.806,34.152,30.149v1.334c0,20.012-13.208,31.618-37.621,31.618c-24.547,0-37.487-10.939-37.487-36.02v-1.2
		h21.611c0,13.074,5.337,18.544,15.343,18.544h1.2c10.006,0,14.941-5.337,14.941-12.273v-0.668c0-7.471-3.868-11.606-18.943-13.607
		C824.023,268.933,813.351,260.929,813.351,242.119z"/>
</g>
<rect x="12.266" y="178.513" width="879.48" height="36.301"/>
</svg>
